<svg xmlns="http://www.w3.org/2000/svg" xmlns:xlink="http://www.w3.org/1999/xlink" width="1080" zoomAndPan="magnify" viewBox="0 0 810 809.999993" height="1080" preserveAspectRatio="xMidYMid meet" version="1.0"><defs><g/></defs><path fill="rgb(98.039246%, 94.509888%, 90.19928%)" d="M 404.96875 63.71875 C 216.503906 63.71875 63.71875 216.503906 63.71875 404.96875 C 63.71875 593.4375 216.503906 746.21875 404.96875 746.21875 C 593.4375 746.21875 746.21875 593.4375 746.21875 404.96875 C 746.21875 216.503906 593.4375 63.71875 404.96875 63.71875 " fill-opacity="1" fill-rule="nonzero"/><path fill="rgb(0.389099%, 57.649231%, 48.629761%)" d="M 404.757812 707.871094 C 323.828125 707.871094 247.628906 676.375 190.445312 619.070312 C 133.140625 561.886719 101.640625 485.683594 101.640625 404.757812 C 101.640625 323.828125 133.140625 247.628906 190.445312 190.445312 C 247.628906 133.140625 323.828125 101.640625 404.757812 101.640625 C 485.683594 101.640625 561.886719 133.140625 619.070312 190.445312 C 676.375 247.75 707.871094 323.828125 707.871094 404.757812 C 707.871094 485.683594 676.375 561.886719 619.070312 619.070312 C 561.886719 676.375 485.683594 707.871094 404.757812 707.871094 Z M 404.757812 119.816406 C 328.675781 119.816406 257.078125 149.496094 203.285156 203.285156 C 149.496094 257.078125 119.816406 328.675781 119.816406 404.757812 C 119.816406 480.839844 149.496094 552.4375 203.285156 606.230469 C 257.078125 660.019531 328.675781 689.699219 404.757812 689.699219 C 480.839844 689.699219 552.4375 660.019531 606.230469 606.230469 C 660.019531 552.4375 689.699219 480.839844 689.699219 404.757812 C 689.699219 328.675781 660.019531 257.078125 606.230469 203.285156 C 552.4375 149.496094 480.839844 119.816406 404.757812 119.816406 Z M 404.757812 119.816406 " fill-opacity="1" fill-rule="nonzero"/><g fill="rgb(0.389099%, 57.649231%, 48.629761%)" fill-opacity="1"><g transform="translate(243.58789, 569.816371)"><g><path d="M 307.480469 -84.191406 C 307.480469 -89.453125 305.417969 -92.65625 300.613281 -93.570312 C 295.351562 -94.484375 291.234375 -92.425781 287.347656 -85.105469 C 270.644531 -50.332031 239.988281 -30.425781 199.496094 -30.425781 C 136.125 -30.425781 89.679688 -80.757812 89.679688 -172.726562 C 89.679688 -251.886719 127.660156 -303.132812 181.878906 -303.132812 C 222.144531 -303.132812 254.628906 -284.144531 279.109375 -229.695312 C 282.542969 -222.144531 288.71875 -219.398438 296.039062 -220.769531 C 303.359375 -222.144531 307.480469 -228.550781 305.191406 -235.640625 L 281.167969 -314.34375 C 278.652344 -322.808594 275.222656 -326.007812 269.5 -326.007812 C 257.605469 -326.007812 257.375 -310.222656 245.707031 -310.222656 C 235.871094 -310.222656 218.484375 -328.296875 172.726562 -328.296875 C 84.417969 -328.296875 18.300781 -256.230469 18.300781 -158.316406 C 18.300781 -60.625 79.84375 8.695312 179.132812 8.695312 C 259.207031 8.695312 307.480469 -41.179688 307.480469 -84.191406 Z M 307.480469 -84.191406 "/></g></g></g></svg>